<svg width="32" height="32" viewBox="0 0 32 32" fill="none" xmlns="http://www.w3.org/2000/svg">
<path d="M6.66667 6.66663C6.66667 6.313 6.52619 5.97386 6.27614 5.72382C6.02609 5.47377 5.68696 5.33329 5.33333 5.33329C4.97971 5.33329 4.64057 5.47377 4.39052 5.72382C4.14048 5.97386 4 6.313 4 6.66663L4 25.3333C4 25.6869 4.14048 26.0261 4.39052 26.2761C4.64057 26.5261 4.97971 26.6666 5.33333 26.6666C5.68696 26.6666 6.02609 26.5261 6.27614 26.2761C6.52619 26.0261 6.66667 25.6869 6.66667 25.3333L6.66667 6.66663ZM16.9373 22.6C17.0613 22.4761 17.1596 22.3291 17.2267 22.1672C17.2938 22.0053 17.3284 21.8318 17.3284 21.6566C17.3284 21.4814 17.2938 21.3079 17.2267 21.146C17.1596 20.9842 17.0613 20.8371 16.9373 20.7133L13.556 17.3333H26.6667C27.0203 17.3333 27.3594 17.1928 27.6095 16.9428C27.8595 16.6927 28 16.3536 28 16C28 15.6463 27.8595 15.3072 27.6095 15.0571C27.3594 14.8071 27.0203 14.6666 26.6667 14.6666L13.556 14.6666L16.9373 11.2853C17.1873 11.0351 17.3277 10.6958 17.3276 10.3422C17.3275 9.98846 17.1869 9.6493 16.9367 9.39929C16.6865 9.14928 16.3472 9.0089 15.9935 9.00902C15.6398 9.00915 15.3007 9.14977 15.0507 9.39996L9.39467 15.0573C9.14471 15.3073 9.00428 15.6464 9.00428 16C9.00428 16.3535 9.14471 16.6926 9.39467 16.9426L15.0507 22.6C15.1745 22.7239 15.3215 22.8223 15.4834 22.8894C15.6453 22.9565 15.8188 22.991 15.994 22.991C16.1692 22.991 16.3427 22.9565 16.5046 22.8894C16.6665 22.8223 16.8135 22.7239 16.9373 22.6Z" fill="white"/>
</svg>
