<svg width="117" height="34" viewBox="0 0 117 34" fill="none" xmlns="http://www.w3.org/2000/svg">
<path d="M6.72656 33.6094H0V0H6.72656V13.4531H20.1562V0H26.8828V33.6094H20.1562V20.1797H6.72656V33.6094ZM48.2578 33.6094H41.5547V23.0859C40.0703 22.7109 38.7031 22.1094 37.4531 21.2812C36.2188 20.4531 35.1562 19.4688 34.2656 18.3281C33.375 17.1719 32.6797 15.8984 32.1797 14.5078C31.6953 13.1016 31.4531 11.625 31.4531 10.0781V0H38.1797V10.0781C38.1797 11 38.3516 11.875 38.6953 12.7031C39.0547 13.5156 39.5391 14.2266 40.1484 14.8359C40.7578 15.4453 41.4688 15.9297 42.2812 16.2891C43.1094 16.6328 43.9844 16.8047 44.9062 16.8047C45.8281 16.8047 46.6953 16.6328 47.5078 16.2891C48.3359 15.9297 49.0547 15.4453 49.6641 14.8359C50.2734 14.2266 50.75 13.5156 51.0938 12.7031C51.4531 11.875 51.6328 11 51.6328 10.0781V0H58.3359V10.0781C58.3359 11.625 58.0859 13.1016 57.5859 14.5078C57.1016 15.8984 56.4141 17.1719 55.5234 18.3281C54.6328 19.4688 53.5703 20.4531 52.3359 21.2812C51.1016 22.1094 49.7422 22.7109 48.2578 23.0859V33.6094ZM69.6328 6.72656V20.1797H76.3594C77.2812 20.1797 78.1484 20.0078 78.9609 19.6641C79.7734 19.3047 80.4844 18.8203 81.0938 18.2109C81.7031 17.6016 82.1797 16.8906 82.5234 16.0781C82.8828 15.25 83.0625 14.375 83.0625 13.4531C83.0625 12.5312 82.8828 11.6641 82.5234 10.8516C82.1797 10.0234 81.7031 9.30469 81.0938 8.69531C80.4844 8.08594 79.7734 7.60938 78.9609 7.26562C78.1484 6.90625 77.2812 6.72656 76.3594 6.72656H69.6328ZM69.6328 33.6094H62.9062V0H76.3594C77.5938 0 78.7812 0.164062 79.9219 0.492188C81.0625 0.804687 82.125 1.25781 83.1094 1.85156C84.1094 2.42969 85.0156 3.13281 85.8281 3.96094C86.6562 4.77344 87.3594 5.67969 87.9375 6.67969C88.5312 7.67969 88.9844 8.75 89.2969 9.89062C89.625 11.0312 89.7891 12.2188 89.7891 13.4531C89.7891 15.2969 89.4375 17.0391 88.7344 18.6797C88.0312 20.3047 87.0703 21.7266 85.8516 22.9453C84.6328 24.1641 83.2031 25.125 81.5625 25.8281C79.9375 26.5312 78.2031 26.8828 76.3594 26.8828H69.6328V33.6094ZM116.789 33.6094H93.75V0H116.789V6.72656H100.477V13.4531H111.516V20.1797H100.477V26.8828H116.789V33.6094Z" fill="url(#paint0_linear_180_22)"/>
<defs>
<linearGradient id="paint0_linear_180_22" x1="-3.11719" y1="16.6094" x2="118.883" y2="16.6094" gradientUnits="userSpaceOnUse">
<stop stop-color="#09CAC8"/>
<stop offset="1" stop-color="#005099"/>
</linearGradient>
</defs>
</svg>
