<svg width="23" height="21" viewBox="0 0 23 21" fill="none" xmlns="http://www.w3.org/2000/svg">
<path d="M21.4979 9.44436L1.66453 0.111028C1.46482 0.0170535 1.24254 -0.0183401 1.02352 0.0089575C0.80449 0.0362551 0.597702 0.125124 0.427164 0.265244C0.256625 0.405364 0.129333 0.590986 0.0600696 0.800556C-0.0091942 1.01013 -0.0175882 1.23505 0.0358626 1.4492L1.44986 7.10636L10.5009 10.5002L1.44986 13.894L0.0358626 19.5512C-0.0185939 19.7655 -0.0109005 19.9909 0.058043 20.201C0.126986 20.4111 0.254329 20.5972 0.425175 20.7376C0.596021 20.8779 0.803307 20.9668 1.02278 20.9936C1.24226 21.0205 1.46486 20.9844 1.66453 20.8894L21.4979 11.556C21.6983 11.4618 21.8678 11.3125 21.9865 11.1255C22.1052 10.9386 22.1682 10.7217 22.1682 10.5002C22.1682 10.2787 22.1052 10.0618 21.9865 9.87486C21.8678 9.6879 21.6983 9.53858 21.4979 9.44436Z" fill="#F5F5F5"/>
</svg>
